# xmcd CD database file
#
# Track frame offsets:
#	150
#	17690
#	32830
#	47722
#	64295
#	80355
#	95630
#	111847
#	126692
#	144692
#	159690
#	172595
#
# Disc length: 2515 seconds
#
# Revision: 0
# Processed by: cddbd v1.5PL3 Copyright (c) Steve Scherf et al.
# Submitted via: CDex 1.51
#
DISCID=a509d10c
DTITLE=Alabama and Vince Gill - Country's Superstars
DYEAR=1900
DGENRE=Country
TTITLE0=Mountain Music
TTITLE1=Forty Hour Week
TTITLE2=Love In The First Degree
TTITLE3=Take Me Down
TTITLE4=The Closer You Get
TTITLE5=Feels So Right
TTITLE6=Vince Gill - Oklahoma Borderline
TTITLE7=Vince Gill - Oh Carolina
TTITLE8=Vince Gill - The Radio
TTITLE9=Vince Gill - Let's Do Something
TTITLE10=Vince Gill - Everybody's Sweetheart
TTITLE11=Vince Gill - Cinderella
EXTD=
EXTT0=
EXTT1=
EXTT2=
EXTT3=
EXTT4=
EXTT5=
EXTT6=
EXTT7=
EXTT8=
EXTT9=
EXTT10=
EXTT11=
PLAYORDER=
